<svg xmlns="http://www.w3.org/2000/svg" version="1.1" xmlns:xlink="http://www.w3.org/1999/xlink" xmlns:svgjs="http://svgjs.dev/svgjs" width="2000" height="601" viewBox="0 0 2000 601"><g transform="matrix(1,0,0,1,-1.2121212121212466,-1.947158761395201)"><svg viewBox="0 0 396 119" data-background-color="#fafafa" preserveAspectRatio="xMidYMid meet" height="601" width="2000" xmlns="http://www.w3.org/2000/svg" xmlns:xlink="http://www.w3.org/1999/xlink"><g id="tight-bounds" transform="matrix(1,0,0,1,0.2400000000000091,0.38554391448590764)"><svg viewBox="0 0 395.52 118.22891217102818" height="118.22891217102818" width="395.52"><g><svg viewBox="0 0 655.0504453059259 195.80780128860036" height="118.22891217102818" width="395.52"><g><rect width="8.125725444361333" height="142.3927932670357" x="416.7915325768621" y="26.70750401078233" fill="#ffffff" opacity="1" stroke-width="0" stroke="transparent" fill-opacity="1" class="rect-yte-0" data-fill-palette-color="primary" rx="1%" id="yte-0" data-palette-color="#ffffff"></rect></g><g transform="matrix(1,0,0,1,0,27.061714939307294)"><svg viewBox="0 0 395.52 141.68437140998577" height="141.68437140998577" width="395.52"><g id="textblocktransform"><svg viewBox="0 0 395.52 141.68437140998577" height="141.68437140998577" width="395.52" id="textblock"><g><svg viewBox="0 0 395.52 90.10459587955626" height="90.10459587955626" width="395.52"><g transform="matrix(1,0,0,1,0,0)"><svg width="395.52" viewBox="2.35 -22.65 126.18 28.749999999999996" height="90.10459587955626" data-palette-color="#ffffff"><g class="wordmark-text-0" data-fill-palette-color="primary" id="text-0"><path d="M10.3-13.85L10.3-13.85 8.75-13.85Q6-13.85 6-11.25L6-11.25 6-2.4Q6 0.2 4.25 0.2L4.25 0.2Q2.35 0.2 2.35-2.1L2.35-2.1 2.35-12.15Q2.35-15.6 6.4-15.6L6.4-15.6 10.35-15.6Q12.25-15.6 12.25-14.7L12.25-14.7Q12.25-13.85 10.3-13.85ZM19.9-1.7L19.9-1.7 24.95-1.7Q26.85-1.7 26.85-0.8L26.85-0.8Q26.85 0 25.05 0L25.05 0 18.8 0Q14.9 0 14.9-3.65L14.9-3.65 14.9-14.7Q14.9-18.3 18.9-18.3L18.9-18.3 23.05-18.3Q24.9-18.3 25.87-17.53 26.85-16.75 26.85-15.3L26.85-15.3 26.85-9.55Q26.85-7.7 25.87-6.9 24.9-6.1 23.05-6.1L23.05-6.1 20-6.1Q18.5-6.1 18.5-3.85L18.5-3.85Q18.5-1.7 19.9-1.7ZM18.5-14.1L18.5-14.1 18.5-10.35Q18.5-7.85 20.95-7.85L20.95-7.85Q23.25-7.85 23.25-10.35L23.25-10.35 23.25-14.1Q23.25-16.6 20.95-16.6L20.95-16.6Q18.5-16.6 18.5-14.1ZM39.95-4.8L39.95-4.8 39.95-10.85Q39.95-13.85 37.84-13.85L37.84-13.85 37.2-13.85Q35.2-13.85 35.2-10.65L35.2-10.65 35.2-4.75Q35.2-1.7 37.25-1.7L37.25-1.7 37.95-1.7Q39.95-1.7 39.95-4.8ZM31.55 3.75L31.55-12.1Q31.55-13.75 32.52-14.68 33.5-15.6 35.5-15.6L35.5-15.6 39.75-15.6Q41.59-15.6 42.57-14.68 43.55-13.75 43.55-12.1L43.55-12.1 43.55-3.5Q43.55-1.6 42.57-0.8 41.59 0 39.75 0L39.75 0 38.15 0Q35.25 0 35.25 2.6L35.25 2.6 35.25 3.5Q35.25 6.1 33.45 6.1L33.45 6.1Q31.55 6.1 31.55 3.75L31.55 3.75ZM50.34 0.25L50.34 0.25Q48.54 0.25 48.54-2.15L48.54-2.15 48.54-20.1Q48.54-22.4 50.34-22.4L50.34-22.4Q52.09-22.4 52.09-20.1L52.09-20.1 52.09-2.15Q52.09 0.25 50.34 0.25ZM62.44-1.7L62.44-1.7 67.49-1.7Q69.39-1.7 69.39-0.8L69.39-0.8Q69.39 0 67.59 0L67.59 0 61.34 0Q57.44 0 57.44-3.65L57.44-3.65 57.44-14.7Q57.44-18.3 61.44-18.3L61.44-18.3 65.59-18.3Q67.44-18.3 68.42-17.53 69.39-16.75 69.39-15.3L69.39-15.3 69.39-9.55Q69.39-7.7 68.42-6.9 67.44-6.1 65.59-6.1L65.59-6.1 62.54-6.1Q61.04-6.1 61.04-3.85L61.04-3.85Q61.04-1.7 62.44-1.7ZM61.04-14.1L61.04-14.1 61.04-10.35Q61.04-7.85 63.49-7.85L63.49-7.85Q65.79-7.85 65.79-10.35L65.79-10.35 65.79-14.1Q65.79-16.6 63.49-16.6L63.49-16.6Q61.04-16.6 61.04-14.1ZM82.49-2.45L82.49-11Q82.49-13.8 80.39-13.8L80.39-13.8 79.74-13.8Q77.74-13.8 77.74-10.8L77.74-10.8 77.74-2.45Q77.74 0.2 75.99 0.2L75.99 0.2Q74.09 0.2 74.09-2.1L74.09-2.1 74.09-12.1Q74.09-13.7 75.06-14.65 76.04-15.6 78.04-15.6L78.04-15.6 82.29-15.6Q84.14-15.6 85.11-14.68 86.09-13.75 86.09-12.15L86.09-12.15 86.09-2.2Q86.09 0.2 84.24 0.2L84.24 0.2Q82.49 0.2 82.49-2.45L82.49-2.45ZM93.09-19.95L93.09-19.95Q91.19-19.95 91.19-21.3L91.19-21.3Q91.19-22.65 93.09-22.65L93.09-22.65Q94.89-22.65 94.89-21.3L94.89-21.3Q94.89-19.95 93.09-19.95ZM93.09 0.2L93.09 0.2Q91.24 0.2 91.24-2.1L91.24-2.1 91.24-13.15Q91.24-15.5 93.09-15.5L93.09-15.5Q94.84-15.5 94.84-13.25L94.84-13.25 94.84-2.15Q94.84 0.2 93.09 0.2ZM107.33-7.1L107.33-7.1 104.08-7.1Q99.93-7.1 99.93-9.95L99.93-9.95 99.93-12.05Q99.93-15.6 103.93-15.6L103.93-15.6 109.53-15.6Q111.43-15.6 111.43-14.8L111.43-14.8Q111.43-13.85 109.43-13.85L109.43-13.85 104.98-13.85Q103.53-13.85 103.53-12.2L103.53-12.2 103.53-10Q103.53-8.7 104.98-8.7L104.98-8.7 107.83-8.7Q111.63-8.7 111.93-5.6L111.93-5.6 111.93-3.6Q111.93 0 107.98 0L107.98 0 101.78 0Q99.93 0 99.93-0.95L99.93-0.95Q99.93-1.85 101.93-1.85L101.93-1.85 107.33-1.85Q108.78-1.85 108.78-3.45L108.78-3.45 108.78-5.7Q108.78-7.1 107.33-7.1ZM125.03-2.35L125.03-10.95Q125.03-13.75 122.88-13.75L122.88-13.75 122.23-13.75Q120.23-13.75 120.23-10.75L120.23-10.75 120.23-2.35Q120.23 0.3 118.48 0.3L118.48 0.3Q116.58 0.3 116.58-2.15L116.58-2.15 116.58-19.9Q116.58-22.25 118.48-22.25L118.48-22.25Q120.23-22.25 120.23-19.65L120.23-19.65 120.23-17.85Q120.23-15.5 123.13-15.5L123.13-15.5 124.73-15.5Q126.63-15.5 127.58-14.6 128.53-13.7 128.53-12.1L128.53-12.1 128.53-2.05Q128.53 0.3 126.78 0.3L126.78 0.3Q125.03 0.3 125.03-2.35L125.03-2.35Z" fill="#ffffff" data-fill-palette-color="primary"></path></g></svg></g></svg></g><g transform="matrix(1,0,0,1,163.310208,111.37612845641839)"><svg viewBox="0 0 232.209792 30.308242953567383" height="30.308242953567383" width="232.209792"><g transform="matrix(1,0,0,1,0,0)"><svg width="232.209792" viewBox="1.22 -33.89 344.88 45.02" height="30.308242953567383" data-palette-color="#ffffff"><path d="M12.89 0L1.61 0 1.46-1.76 4.49-2.49Q4.54-2.73 4.59-3.34 4.64-3.96 4.66-5.05 4.69-6.15 4.69-7.71L4.69-7.71 4.74-11.52Q4.74-13.13 4.61-14.72 4.49-16.31 4.35-17.19L4.35-17.19 1.22-17.87 1.22-19.48 7.76-21.29 8.45-20.61 8.25-16.5 8.4-16.46Q9.86-19.29 11.35-20.29 12.84-21.29 14.21-21.29L14.21-21.29Q15.33-21.29 16.09-20.7 16.85-20.12 16.85-19.04L16.85-19.04Q16.85-17.92 16.04-17.29 15.23-16.65 14.01-16.65L14.01-16.65Q13.13-16.65 12.33-17.04 11.52-17.43 10.79-18.12L10.79-18.12 11.67-17.82Q10.79-17.24 9.96-16.16 9.13-15.09 8.4-13.57L8.4-13.57 8.45-9.03Q8.5-7.81 8.54-6.52 8.59-5.22 8.64-4.13 8.69-3.03 8.74-2.49L8.74-2.49 12.99-1.86 12.89 0ZM28.81 0.39L28.81 0.39Q25.97 0.39 23.68-0.88 21.38-2.15 20.07-4.52 18.75-6.88 18.75-10.11L18.75-10.11Q18.75-13.57 20.16-16.11 21.58-18.65 23.87-20.04 26.17-21.44 28.81-21.39L28.81-21.39Q32.61-21.34 34.76-18.87 36.91-16.41 36.91-11.82L36.91-11.82 36.91-10.94 21.92-10.94 21.92-13.09 33.69-13.09 33.15-12.45 33.15-13.48Q33.15-16.26 31.91-17.8 30.66-19.34 28.42-19.34L28.42-19.34Q27.05-19.34 25.78-18.53 24.51-17.72 23.73-16.09 22.95-14.45 22.95-11.96L22.95-11.96 22.95-11.38Q22.95-7.37 24.92-5.13 26.9-2.88 30.03-2.88L30.03-2.88Q31.78-2.88 33.13-3.54 34.47-4.2 35.74-5.76L35.74-5.76 36.96-4.64Q35.59-2.1 33.49-0.85 31.39 0.39 28.81 0.39ZM51.12 10.74L40.08 10.74 39.99 8.98 43.01 8.25Q43.01 8.01 43.04 7.42 43.06 6.84 43.09 5.83 43.11 4.83 43.16 3.47 43.21 2.1 43.21 0.29L43.21 0.29 43.31-11.77Q43.31-13.23 43.18-14.77 43.06-16.31 42.91-17.19L42.91-17.19 39.79-17.87 39.79-19.48 46.33-21.29 47.16-20.51 46.92-17.82 47.07-17.82Q48.43-19.58 50.07-20.48 51.7-21.39 53.61-21.39L53.61-21.39Q56.29-21.39 58.37-20.04 60.44-18.7 61.64-16.36 62.84-14.01 62.84-11.04L62.84-11.04Q62.84-7.76 61.37-5.2 59.91-2.64 57.39-1.15 54.88 0.34 51.7 0.34L51.7 0.34Q50.53 0.34 49.29 0.12 48.04-0.1 47.02-0.49L47.02-0.49 47.02 3.17Q47.02 5.03 47.09 6.32 47.16 7.62 47.21 8.25L47.21 8.25 51.22 8.89 51.12 10.74ZM51.85-2.05L51.85-2.05Q53.85-2.05 55.32-3 56.78-3.96 57.64-5.76 58.49-7.57 58.54-10.11L58.54-10.11Q58.59-12.45 57.76-14.26 56.93-16.06 55.51-17.11 54.1-18.16 52.24-18.16L52.24-18.16Q50.68-18.16 49.38-17.46 48.09-16.75 47.02-15.38L47.02-15.38 47.02-3.56Q47.94-2.83 49.24-2.44 50.53-2.05 51.85-2.05ZM76.65 0L66.25 0 66.15-1.81 69.33-2.49Q69.43-3.03 69.45-4.13 69.47-5.22 69.52-7.08 69.57-8.94 69.57-11.62L69.57-11.62 69.57-17.72Q69.57-19.53 69.55-21.48 69.52-23.44 69.5-25.2 69.47-26.95 69.43-28.2 69.38-29.44 69.38-29.83L69.38-29.83 65.76-30.32 65.67-31.88 72.65-33.89 73.58-33.2Q73.53-31.1 73.48-29.08 73.43-27.05 73.41-24.56 73.38-22.07 73.38-18.55L73.38-18.55 73.33-10.69Q73.33-7.81 73.41-5.49 73.48-3.17 73.58-2.49L73.58-2.49 76.75-1.81 76.65 0ZM91.15-3.66L88.71 0.2 80.12-18.51 77.82-19.24 77.97-21 87.44-21 87.54-19.24 84.51-18.51 91.15-3.66ZM93.15-21L101.21-21 101.36-19.24 99.06-18.51 90.76-1.07 86.86 7.03Q85.78 9.28 84.58 10.21 83.39 11.13 81.83 11.13L81.83 11.13Q80.65 11.13 79.87 10.55 79.09 9.96 79.09 9.03L79.09 9.03Q79.09 8.3 79.68 7.67 80.26 7.03 81.48 6.64L81.48 6.64 86.03 5.27 83.78 7.71 89.2-2.73 89.74-3.61 96.08-18.51 93.06-19.24 93.15-21ZM126.4-4.25L127.28-3.03Q126.35-1.42 124.74-0.51 123.13 0.39 121.37 0.39L121.37 0.39Q118.44 0.39 116.51-1.42 114.58-3.22 114.58-6.84L114.58-6.84 114.73-18.51 111.31-18.51 111.31-19.53 117.61-25.24 118.54-25.24 118.44-19.63 118.39-7.62Q118.39-5.08 119.49-3.86 120.59-2.64 122.59-2.64L122.59-2.64Q123.72-2.64 124.67-3.1 125.62-3.56 126.4-4.25L126.4-4.25ZM125.82-18.51L116.68-18.51 116.68-20.95 125.82-20.95 125.82-18.51ZM139.19 0.39L139.19 0.39Q136.02 0.39 133.65-0.98 131.28-2.34 129.96-4.81 128.64-7.28 128.64-10.45L128.64-10.45Q128.64-13.77 130.09-16.21 131.53-18.65 133.99-20.02 136.46-21.39 139.39-21.39L139.39-21.39Q142.41-21.39 144.66-20.04 146.91-18.7 148.18-16.28 149.45-13.87 149.45-10.64L149.45-10.64Q149.45-7.57 148.08-5.05 146.71-2.54 144.39-1.07 142.07 0.39 139.19 0.39ZM139.68-1.9L139.68-1.9Q141.34-1.9 142.56-2.91 143.78-3.91 144.46-5.69 145.15-7.47 145.15-9.77L145.15-9.77Q145.15-13.96 143.42-16.58 141.68-19.19 138.85-19.19L138.85-19.19Q136.21-19.19 134.63-17.02 133.04-14.84 133.04-11.18L133.04-11.18Q133.04-8.45 133.89-6.35 134.75-4.25 136.26-3.08 137.78-1.9 139.68-1.9ZM173.71 0L162.43 0 162.28-1.76 165.31-2.49Q165.36-2.73 165.41-3.34 165.46-3.96 165.48-5.05 165.5-6.15 165.5-7.71L165.5-7.71 165.55-11.52Q165.55-13.13 165.43-14.72 165.31-16.31 165.16-17.19L165.16-17.19 162.04-17.87 162.04-19.48 168.58-21.29 169.26-20.61 169.07-16.5 169.22-16.46Q170.68-19.29 172.17-20.29 173.66-21.29 175.03-21.29L175.03-21.29Q176.15-21.29 176.91-20.7 177.66-20.12 177.66-19.04L177.66-19.04Q177.66-17.92 176.86-17.29 176.05-16.65 174.83-16.65L174.83-16.65Q173.95-16.65 173.15-17.04 172.34-17.43 171.61-18.12L171.61-18.12 172.49-17.82Q171.61-17.24 170.78-16.16 169.95-15.09 169.22-13.57L169.22-13.57 169.26-9.03Q169.31-7.81 169.36-6.52 169.41-5.22 169.46-4.13 169.51-3.03 169.56-2.49L169.56-2.49 173.81-1.86 173.71 0ZM189.62 0.39L189.62 0.39Q186.79 0.39 184.5-0.88 182.2-2.15 180.88-4.52 179.56-6.88 179.56-10.11L179.56-10.11Q179.56-13.57 180.98-16.11 182.4-18.65 184.69-20.04 186.99-21.44 189.62-21.39L189.62-21.39Q193.43-21.34 195.58-18.87 197.73-16.41 197.73-11.82L197.73-11.82 197.73-10.94 182.74-10.94 182.74-13.09 194.51-13.09 193.97-12.45 193.97-13.48Q193.97-16.26 192.72-17.8 191.48-19.34 189.23-19.34L189.23-19.34Q187.87-19.34 186.6-18.53 185.33-17.72 184.55-16.09 183.76-14.45 183.76-11.96L183.76-11.96 183.76-11.38Q183.76-7.37 185.74-5.13 187.72-2.88 190.84-2.88L190.84-2.88Q192.6-2.88 193.94-3.54 195.29-4.2 196.56-5.76L196.56-5.76 197.78-4.64Q196.41-2.1 194.31-0.85 192.21 0.39 189.62 0.39ZM211.94 10.74L200.9 10.74 200.8 8.98 203.83 8.25Q203.83 8.01 203.85 7.42 203.88 6.84 203.9 5.83 203.93 4.83 203.98 3.47 204.03 2.1 204.03 0.29L204.03 0.29 204.12-11.77Q204.12-13.23 204-14.77 203.88-16.31 203.73-17.19L203.73-17.19 200.61-17.87 200.61-19.48 207.15-21.29 207.98-20.51 207.74-17.82 207.88-17.82Q209.25-19.58 210.89-20.48 212.52-21.39 214.43-21.39L214.43-21.39Q217.11-21.39 219.19-20.04 221.26-18.7 222.46-16.36 223.65-14.01 223.65-11.04L223.65-11.04Q223.65-7.76 222.19-5.2 220.72-2.64 218.21-1.15 215.7 0.34 212.52 0.34L212.52 0.34Q211.35 0.34 210.1 0.12 208.86-0.1 207.83-0.49L207.83-0.49 207.83 3.17Q207.83 5.03 207.91 6.32 207.98 7.62 208.03 8.25L208.03 8.25 212.03 8.89 211.94 10.74ZM212.67-2.05L212.67-2.05Q214.67-2.05 216.13-3 217.6-3.96 218.45-5.76 219.31-7.57 219.36-10.11L219.36-10.11Q219.41-12.45 218.58-14.26 217.75-16.06 216.33-17.11 214.91-18.16 213.06-18.16L213.06-18.16Q211.5-18.16 210.2-17.46 208.91-16.75 207.83-15.38L207.83-15.38 207.83-3.56Q208.76-2.83 210.06-2.44 211.35-2.05 212.67-2.05ZM237.47 0L227.07 0 226.97-1.81 230.15-2.49Q230.24-3.03 230.27-4.13 230.29-5.22 230.34-7.08 230.39-8.94 230.39-11.62L230.39-11.62 230.39-17.72Q230.39-19.53 230.37-21.48 230.34-23.44 230.32-25.2 230.29-26.95 230.24-28.2 230.19-29.44 230.19-29.83L230.19-29.83 226.58-30.32 226.48-31.88 233.47-33.89 234.39-33.2Q234.35-31.1 234.3-29.08 234.25-27.05 234.22-24.56 234.2-22.07 234.2-18.55L234.2-18.55 234.15-10.69Q234.15-7.81 234.22-5.49 234.3-3.17 234.39-2.49L234.39-2.49 237.57-1.81 237.47 0ZM250.94 0.39L250.94 0.39Q248.11 0.39 245.82-0.88 243.52-2.15 242.2-4.52 240.89-6.88 240.89-10.11L240.89-10.11Q240.89-13.57 242.3-16.11 243.72-18.65 246.01-20.04 248.31-21.44 250.94-21.39L250.94-21.39Q254.75-21.34 256.9-18.87 259.05-16.41 259.05-11.82L259.05-11.82 259.05-10.94 244.06-10.94 244.06-13.09 255.83-13.09 255.29-12.45 255.29-13.48Q255.29-16.26 254.04-17.8 252.8-19.34 250.55-19.34L250.55-19.34Q249.19-19.34 247.92-18.53 246.65-17.72 245.87-16.09 245.08-14.45 245.08-11.96L245.08-11.96 245.08-11.38Q245.08-7.37 247.06-5.13 249.04-2.88 252.16-2.88L252.16-2.88Q253.92-2.88 255.27-3.54 256.61-4.2 257.88-5.76L257.88-5.76 259.1-4.64Q257.73-2.1 255.63-0.85 253.53 0.39 250.94 0.39ZM272.33 0L262.32 0 262.22-1.76 265.25-2.49Q265.3-2.83 265.32-3.42 265.35-4 265.39-5.03 265.44-6.05 265.44-7.71L265.44-7.71 265.49-11.47Q265.49-13.09 265.37-14.7 265.25-16.31 265.1-17.19L265.1-17.19 261.98-17.87 261.98-19.48 268.52-21.29 269.35-20.51 269.11-17.92 269.25-17.87Q270.96-19.73 272.62-20.56 274.28-21.39 276.23-21.39L276.23-21.39Q278.04-21.39 279.63-20.48 281.22-19.58 282.22-17.7 283.22-15.82 283.22-12.99L283.22-12.99 283.22-7.57Q283.22-5.81 283.29-4.39 283.36-2.98 283.51-2.49L283.51-2.49 286.54-1.76 286.39 0 276.58 0 276.48-1.76 279.31-2.49Q279.36-2.88 279.41-3.47 279.46-4.05 279.48-4.98 279.51-5.91 279.51-7.23L279.51-7.23 279.51-12.5Q279.51-14.7 278.75-15.99 277.99-17.29 276.87-17.85 275.75-18.41 274.57-18.41L274.57-18.41Q272.96-18.41 271.6-17.63 270.23-16.85 269.2-15.38L269.2-15.38 269.2-8.06Q269.2-5.76 269.28-4.39 269.35-3.03 269.45-2.49L269.45-2.49 272.47-1.76 272.33 0ZM299.52 0L288.98 0 288.88-1.81 292.15-2.49Q292.2-2.69 292.22-3.17 292.25-3.66 292.3-4.74 292.35-5.81 292.35-7.71L292.35-7.71 292.35-10.94Q292.35-12.99 292.25-14.65 292.15-16.31 292-17.19L292-17.19 288.73-17.87 288.73-19.48 295.67-21.29 296.4-20.61Q296.25-19.09 296.18-17.63 296.11-16.16 296.11-14.21L296.11-14.21 296.11-8.06Q296.11-5.81 296.18-4.35 296.25-2.88 296.35-2.49L296.35-2.49 299.62-1.81 299.52 0ZM294.25-26.81L294.25-26.81Q292.98-26.81 292.1-27.64 291.22-28.47 291.22-29.69L291.22-29.69Q291.22-30.86 292.1-31.71 292.98-32.57 294.25-32.57L294.25-32.57Q295.52-32.57 296.35-31.71 297.18-30.86 297.18-29.69L297.18-29.69Q297.18-28.47 296.35-27.64 295.52-26.81 294.25-26.81ZM310.31 0.39L310.31 0.39Q308.5 0.39 306.7-0.02 304.89-0.44 303.62-1.12L303.62-1.12 303.38-6.35 305.77-6.35 306.75-2.83Q308.36-1.66 310.65-1.66L310.65-1.66Q312.26-1.66 313.31-2.47 314.36-3.27 314.36-4.64L314.36-4.64Q314.36-5.96 313.44-6.88 312.51-7.81 309.82-8.94L309.82-8.94Q306.36-10.45 304.94-11.87 303.52-13.28 303.52-15.43L303.52-15.43Q303.52-17.19 304.57-18.53 305.62-19.87 307.48-20.63 309.34-21.39 311.78-21.39L311.78-21.39Q313.14-21.39 314.56-21.17 315.98-20.95 316.9-20.51L316.9-20.51 317.44-15.43 315.15-15.43 313.97-18.75Q313.49-19.04 312.8-19.21 312.12-19.38 311.34-19.38L311.34-19.38Q309.63-19.38 308.6-18.58 307.58-17.77 307.58-16.5L307.58-16.5Q307.58-15.04 308.7-14.14 309.82-13.23 312.66-11.91L312.66-11.91Q315.88-10.45 317.15-9.03 318.42-7.62 318.42-5.62L318.42-5.62Q318.42-2.98 316.12-1.29 313.83 0.39 310.31 0.39ZM331.89 0L321.88 0 321.78-1.76 324.81-2.49Q324.91-3.03 324.93-4.13 324.96-5.22 325.01-7.08 325.06-8.94 325.06-11.62L325.06-11.62 325.06-17.72Q325.06-19.38 325.03-21.29 325.01-23.19 324.98-24.98 324.96-26.76 324.91-28.1 324.86-29.44 324.86-29.83L324.86-29.83 321.25-30.32 321.15-31.88 328.03-33.89 328.96-33.2Q328.91-31.69 328.86-30.18 328.81-28.66 328.79-26.9 328.77-25.15 328.74-22.97 328.72-20.8 328.72-17.92L328.72-17.92 328.86-17.87Q330.52-19.73 332.18-20.56 333.84-21.39 335.8-21.39L335.8-21.39Q337.6-21.39 339.19-20.46 340.78-19.53 341.78-17.65 342.78-15.77 342.78-12.84L342.78-12.84 342.78-7.57Q342.78-5.81 342.88-4.42 342.98-3.03 343.07-2.49L343.07-2.49 346.1-1.76 346 0 336.19 0 336.04-1.76 338.87-2.49Q338.92-2.88 338.97-3.47 339.02-4.05 339.04-4.98 339.07-5.91 339.07-7.23L339.07-7.23 339.07-12.5Q339.07-14.6 338.36-15.89 337.65-17.19 336.53-17.8 335.41-18.41 334.14-18.41L334.14-18.41Q332.53-18.41 331.16-17.63 329.79-16.85 328.77-15.38L328.77-15.38 328.77-8.06Q328.77-5.81 328.84-4.35 328.91-2.88 329.01-2.49L329.01-2.49 331.99-1.76 331.89 0Z" opacity="1" transform="matrix(1,0,0,1,0,0)" fill="#ffffff" class="slogan-text-1" data-fill-palette-color="secondary" id="text-1"></path></svg></g></svg></g></svg></g></svg></g><g transform="matrix(1,0,0,1,446.1887905980855,0)"><svg viewBox="0 0 208.8616547078404 195.80780128860036" height="195.80780128860036" width="208.8616547078404"><g><svg xmlns="http://www.w3.org/2000/svg" xmlns:xlink="http://www.w3.org/1999/xlink" version="1.1" x="0" y="0" viewBox="0 3 96 90" enable-background="new 0 0 96 96" xml:space="preserve" height="195.80780128860036" width="208.8616547078404" class="icon-icon-0" data-fill-palette-color="accent" id="icon-0"><path d="M48 3C36.972 3 28 11.972 28 23S36.972 43 48 43C59.027 43 68 34.028 68 23S59.027 3 48 3M56.648 31C55.547 31 54.648 30.104 54.648 29 54.648 26.908 52.511 25 50.168 25H42.78L47.256 29.548A2.001 2.001 0 0 1 45.836 32.956 2 2 0 0 1 44.412 32.36L36.58 24.408A2 2 0 0 1 36.58 21.604L44.412 13.656A1.998 1.998 0 1 1 47.256 16.46L42.78 21.008H50.168C54.688 21.008 58.648 24.748 58.648 29.008A2 2 0 0 1 56.648 31" fill="#ffba24" data-fill-palette-color="accent"></path><path d="M27.984 50.393L29.384 54.776C30.464 58.157 34.372 61.008 37.912 61.008H58.08C61.628 61.008 65.54 58.156 66.628 54.772L68.036 50.393A2 2 0 0 1 69.943 49.004H95.324L83.844 22.216A2.02 2.02 0 0 0 82 21.004H71.9C71.956 21.664 72 22.328 72 23.004 72 36.24 61.236 47.004 48 47.004S24 36.24 24 23.004C24 22.328 24.048 21.664 24.1 21.004H14C13.2 21.004 12.476 21.48 12.164 22.216L0.684 49.004H26.084A1.99 1.99 0 0 1 27.984 50.393" fill="#ffba24" data-fill-palette-color="accent"></path><path d="M71.4 53L70.439 55.996C68.816 61.048 63.384 65 58.088 65H37.916C32.612 65 27.192 61.044 25.576 55.992L24.62 53H0V89C0 91.2 1.8 93 4 93H92C94.2 93 96 91.2 96 89V53z" fill="#ffba24" data-fill-palette-color="accent"></path></svg></g></svg></g></svg></g><defs></defs></svg><rect width="395.52" height="118.22891217102818" fill="none" stroke="none" visibility="hidden"></rect></g></svg></g></svg>